<?xml version='1.0' encoding='utf-8'?>
<svg xmlns="http://www.w3.org/2000/svg" viewBox="0 0 640 480"> <path d="m194.45 356.98c0.416-1.221 1.047-2.491 1.401-2.822 0.354-0.332 2.15-4.879 3.99-10.106 1.841-5.227 4.484-11.76 5.873-14.518s5.392-15.626 8.895-28.596l6.369-23.581 11.297 0.785c7.718 0.53702 13.055 0.216 16.847-1.012 3.053-0.98901 5.939-1.451 6.412-1.027 0.474 0.42401 2.955 5.519 5.513 11.323 2.949 6.69 7.611 14.403 12.738 21.075 4.448 5.788 9.028 13.048 10.177 16.134s3.417 6.589 5.039 7.784c2.798 2.06 10.177 9.554 11.187 11.361 0.91 1.628 8.783 7.003 10.435 7.125 0.93701 0.069 1.475-0.60501 1.225-1.535-1.671-6.224-1.848-5.977 3.525-4.916 3.895 0.76898 5.116 0.58499 5.176-0.77802 0.041992-0.982-3.695-7.336-8.305-14.12-8.699-12.801-19.621-34.991-24.94-50.668-3.021-8.902-5.087-19.677-3.794-19.779 0.362-0.028015 3.637-0.093018 7.278-0.143 7.417-0.104 22.753-2.724 23.595-4.031 1.247-1.937 7.44-4.606 10.216-4.401 4.525 0.33301 22.609-4.52 28.5-7.648 2.868-1.523 6.863-4.489 8.879-6.591 2.015-2.101 5.537-4.513 7.827-5.359 7.261-2.683 17.644-9.816 22.757-15.634 3.886-4.422 5.74-8.002 8.678-16.756 2.054-6.123 3.84-13.461 3.969-16.308 0.20297-4.494 0.672-5.434 3.571-7.144 1.836-1.083 5.649-4.365 8.473-7.294 5.006-5.191 5.144-5.514 5.475-12.837 0.68399-15.136-3.144-35.628-8.932-47.822-3.19-6.719-3.505-8.9003-1.263-8.7353 0.82202 0.060501 3.619-1.0202 6.216-2.4015 3.507-1.8661 4.755-3.2561 4.852-5.4083 0.18298-4.0621-1.386-10.047-3.136-11.963-3.472-3.7991-9.285-17.177-14.766-33.981-10.717-32.854-19.019-41.484-36.288-37.722-4.494 0.97883-10.73 6.0512-20.807 16.925l-4.429 4.7799-6.718-5.8784c-9.961-8.7162-15.545-10.861-27.856-10.698-30.31 0.4015-30.392 0.4113-37.364 4.4116l-6.608 3.7919-10.649-7.5626c-10.43-7.407-10.808-7.5641-18.377-7.6328l-7.728-0.07018-7.743 9.1516c-4.259 5.0334-10.261 11.492-13.337 14.353-5.808 5.4011-9.423 11.806-11.063 19.599l-0.957 4.5465-13.209-0.5183c-15.935-0.6252-25.365 1.5353-39.599 9.0724-8.332 4.4115-11.29 6.8507-18.601 15.336-9.93 11.524-18.756 25.767-22.271 35.937-1.654 4.787-2.9701 12.522-4.1902 24.632-1.7164 17.035-1.8905 17.788-4.9654 21.474-1.7527 2.101-4.2702 6.226-5.5946 9.167-1.9898 4.419-2.9113 5.311-5.307 5.135-8.2096-0.605-14.994 6.737-14.887 16.111 0.059105 5.21 0.26231 5.587 3.3419 6.196 3.2556 0.64401 3.2807 0.608 3.5396-5.12 0.25301-5.597 0.3699-5.786 3.9548-6.375 2.0317-0.33299 3.7857-0.416 3.8977-0.18199 0.1119 0.23299 0.6101 3.633 1.1069 7.555 1.4083 11.119 5.0003 18.25 10.634 21.113 5.5227 2.807 8.3258 2.229 10.377-2.139l1.489-3.169 1.406 3.146c3.387 7.58 5.719 26.762 5.061 41.628-0.311 7.032 0.224 10.219 3.537 21.061 3.814 12.483 5.057 20.464 5.655 36.301 0.259 6.863 0.737 8.41 3.905 12.638 1.986 2.649 4.262 6.704 5.057 9.011 1.817 5.266 6.92 12.672 8.829 12.812 0.854 0.063019 1.502-1.185 1.587-3.056 0.20599-4.557 2.037-5.186 5.226-1.795 3.381 3.594 5.88 3.978 5.988 0.91898 0.133-3.76-3.282-13.732-7.391-21.585-4.543-8.684-6.878-22.11-6.262-36.012 0.448-10.122 2.239-15.51 6.76-20.341l3.2-3.419 2.201 8.395c1.211 4.618 2.405 11.323 2.653 14.901 0.67 9.665 1.553 12.223 5.338 15.465 1.888 1.616 4.344 5.321 5.458 8.234 2.043 5.34 6.859 10.721 9.788 10.937 0.873 0.063995 1.93-1.028 2.349-2.427 0.91-3.043 1.986-3.15 3.598-0.35599 0.70099 1.215 2 1.804 3.153 1.428 1.683-0.54797 1.845-0.16598 1.142 2.702-1.101 4.49-2.527 31.247-1.727 32.413 1.022 1.488 4.785-1.338 5.655-4.247 1.215-4.061 2.53-1.054 2.892 6.617 0.325 6.888 2.334 9.328 3.901 4.738zm0.259-21.694c0.148-3.282-3.212-3.834-5.194-0.85202-1.035 1.556-2.058 2.533-2.273 2.171-0.21501-0.36301 1.076-9.619 2.868-20.57 3.936-24.045 6.727-55.114 5.287-58.857-0.866-2.251-1.111-1.888-1.938 2.879-0.521 3-1.23 5.427-1.577 5.393-1.664-0.16302-11.431-4.834-18.555-8.874-15.331-8.694-20.314-12.383-20.673-15.301-0.188-1.524-0.63101-6.01-0.98401-9.969-1.664-18.629-5.201-19.73-5.195-1.616 9.92e-4 5.454-3.813 16.879-10.544 31.583-4.84 10.574-4.862 10.672-5.357 24.021-0.57201 15.443 1.203 23.418 7.404 33.27 3.712 5.896 3.848 8.17 0.326 5.418-1.828-1.428-2.067-1.245-2.199 1.683-0.211 4.668-1.493 3.977-3.797-2.047-1.096-2.866-2.66-5.595-3.476-6.065-1.117-0.64401-1.384-3.053-1.081-9.758 0.44401-9.828-1.524-24.791-4.608-35.038-1.576-5.236-1.929-9.403-1.663-19.623 0.186-7.136-0.245-16.528-0.956-20.87-1.442-8.795-6.273-25.178-10.862-36.836-1.757-4.463-4.036-14.125-5.461-23.152-2.213-14.027-2.336-16.777-1.292-29.058 2.108-24.794 7.459-38.236 21.79-54.734 12.769-14.699 15.481-16.882 26.696-21.482 11.849-4.8605 23.897-6.8568 36.003-5.9658 8.192 0.6029 9.631 1.034 10.07 3.0162 2.856 12.879 9.877 29.321 18.755 43.921 4.768 7.842 7.823 11.383 13.85 16.059 7.197 5.583 8.182 5.995 14.226 5.948 7.765-0.05899 11.209-2.463 14.95-10.432 2.336-4.979 2.634-6.917 2.758-17.963 0.134-11.881-0.082977-13.125-5.36-30.809-6.357-21.3-8.298-32.096-7.062-39.283 0.74699-4.3408 0.618-4.9796-0.95601-4.7267-1 0.1609-3.008 2.9563-4.462 6.212l-2.643 5.9195 6.309 19.846c8.185 25.746 8.943 29.346 8.454 40.174-0.68599 15.17-5.969 22.649-15.502 21.947-10.319-0.759-23.45-19.503-33.296-47.527-6.785-19.313-4.95-32.31 5.715-40.474 2.759-2.1116 8.139-7.0761 11.957-11.032 8.153-8.4491 10.662-9.7045 16.357-8.1863 4.511 1.2026 16.734 11.952 20.773 18.268 2.935 4.5899 6.968 5.174 7.158 1.0366 0.12698-2.7775 3.794-6.1095 11.592-10.532 3.446-1.9546 33.505-4.2074 37.87-2.8383 7.631 2.3934 18.732 11.642 23.672 19.722 1.585 2.593 5.597 7.12 8.915 10.06l6.033 5.3454-6.357-0.080898c-5.949-0.075703-6.473 0.1687-8.16 3.8057-2.964 6.3881-1.261 23.391 3.023 30.185 1.453 2.3057 1.342 2.7222-1.72 6.421-3.447 4.1642-5.236 9.1633-3.754 10.49 0.48401 0.43301 2.65-1.168 4.813-3.557 3.348-3.7 11.51-7.6618 15.221-7.3887 0.51202 0.037796-1.544 3.1511-4.569 6.9187-5.004 6.23-6.593 9.16-5.03 9.275 0.31802 0.023003 2.817-2.067 5.554-4.646 6.071-5.721 10.813-8.4496 14.244-8.197 2.406 0.17709 3.498 2.092 1.676 2.94-1.259 0.586-7.92 12.459-8.001 14.261-0.040009 0.888-0.392 2.517-0.78201 3.62-1.465 4.146 1.224 1.838 6.857-5.884 10.792-14.795 24.067-18.295 33.278-8.774 5.015 5.184 10.184 16.788 11.021 24.741 0.32001 3.042 0.383 10.369 0.13998 16.282-0.39499 9.627-0.70798 11.055-2.987 13.648-4.932 5.612-16.764 6.978-32.079 3.702-12.174-2.604-17.506-5.506-20.608-11.217-2.642-4.866-3.934-4.426-2.62 0.89299 0.49899 2.022 0.776 3.78 0.61499 3.905-0.91699 0.71301-25.711-4.127-32.006-6.247-10.389-3.499-18.526-10.988-23.197-21.347-1.339-2.971-1.17-3.426 3.568-9.587 4.797-6.239 6.232-9.671 4.108-9.827-0.55798-0.041-1.038 0.437-1.066 1.062-0.064026 1.4-7.183 4.678-18.473 8.504-10.5 3.559-17.667 8.85-20.58 15.194-2.56 5.574-1.413 9.564 1.188 4.133 1.872-3.907 7.235-7.123 15.32-9.187 9.911-2.529 10.264-2.322 10.715 6.307 0.55002 10.517 3.817 27.946 6.984 37.256 3.733 10.973 7.839 17.19 14.185 21.478 7.329 4.951 13.833 4.597 24.555-1.339 7.215-3.995 8.253-5.065 12.328-12.711 2.447-4.592 5.506-9.73 6.799-11.419l2.351-3.071 6.089 2.921c4.67 2.24 22.541 6.766 28.474 7.212 1.26 0.094009 0.52499 6.823-1.391 12.73-6.323 19.49-15.105 29.421-28.373 32.081-4.273 0.856-6.871 2.409-10.665 6.373-8.518 8.901-24.575 15.202-35.032 13.747-7.502-1.044-17.044-4.063-20.072-6.351-1.894-1.432-4.331-3.266-5.414-4.075-1.083-0.80901-3.906-2.988-6.273-4.843-2.366-1.855-4.564-3.075-4.883-2.711-1.095 1.245 4.865 14.057 6.598 14.185 0.32498 0.024002 2.542 1.942 4.926 4.262 2.383 2.321 5.333 4.293 6.554 4.382 1.325 0.097992 2.02 0.80399 1.724 1.752-1.065 3.412-20.704 3.518-35.381 0.18999-12.85-2.913-17.605-3.454-14.684-1.67 1.089 0.66501 2.795 2.508 3.79 4.096 0.99402 1.588 2.852 2.963 4.127 3.057 1.276 0.094009 2.559 0.73601 2.852 1.427 0.60501 1.429-5.138 2.183-14.807 1.942l-6.609-0.16499 6.222 3.048c3.423 1.676 6.207 3.414 6.188 3.86-0.02002 0.44699-2.492 1.962-5.495 3.366-4.36 2.04-7.955 2.497-17.856 2.269-12.262-0.28198-12.389-0.315-11.706-3.007 0.87199-3.436 0.14299-3.476-3.773-0.20599-2.807 2.344-3.164 3.349-3.452 9.716-0.222 4.909-1.979 12.503-5.692 24.605-2.955 9.628-5.416 18.477-5.47 19.665-0.052994 1.189-1.304 3.792-2.779 5.786-1.475 1.993-3.277 5.911-4.004 8.707-1.211 4.655-3.294 5.785-3.109 1.685zm142.29-122.35c7.555-2.388 15.159-8.479 10.972-8.787-0.699-0.05101-4.367 0.795-8.15 1.88-3.784 1.085-10.469 2.085-14.857 2.222-4.388 0.136-9.127 0.472-10.531 0.74701-2.422 0.47299-2.455 0.578-0.64102 2.056 3.074 2.504 17.532 3.677 23.207 1.882zm-85.942-11.714c-2.5-2.427-11.917-18.785-14.119-24.525-3.141-8.19-6.964-23.058-8.149-31.694-1.263-9.202-3.675-9.609-4.078-0.689-0.567 12.555 2.652 30.59 7.183 40.242 2.505 5.337 15.316 17.401 18.695 17.606 0.98399 0.059998 1.151-0.27701 0.468-0.94zm126.32-69.964c0.353-0.40199 0.74301-2.965 0.866-5.697 0.16101-3.551 0.65799-4.935 1.746-4.855 0.83701 0.062004 1.496 0.69501 1.464 1.408-0.03299 0.712 0.854 1.363 1.97 1.445 2.74 0.201 3.062-6.316 0.478-9.668-4.244-5.505-9.205 0.053001-9.693 10.862-0.237 5.235 1.376 8.545 3.169 6.505zm31.494-0.19299c1.053-1.198 1.164-7.485 0.20001-11.384-1.52-6.155-6.97-3.992-7.281 2.89-0.12698 2.818 0.31 3.662 1.96 3.784 1.271 0.093002 2.291 1.213 2.538 2.787 0.42398 2.696 1.318 3.362 2.583 1.923zm-127.19-42.295c6.984-5.196 15.885-7.1043 31.35-6.7217l14.743 0.3648-3.931-3.1058c-2.91-2.2992-4.953-5.6569-7.867-12.929-6.09-15.202-8.605-18.617-14.003-19.014-4.583-0.3374-13.172 2.8327-14.568 5.3771-0.42499 0.7742-0.28598 2.2508 0.30902 3.2812 0.767 1.3292 0.716 3.8003-0.17602 8.5059-0.69098 3.6478-1.092 7.6805-0.88998 8.9616 0.25299 1.6088-0.79901 3.1339-3.399 4.9307-4.28 2.9578-7.009 6.8551-7.161 10.227-0.13602 2.9974 1.675 3.0368 5.593 0.1217zm9.989-15.569c-0.42099-1.6871 0.088989-1.853 2.931-0.9531 2.872 0.909 3.914 0.5522 6.292-2.1525 2.336-2.6581 2.822-4.1753 2.697-8.4227-0.12-4.1103 0.16501-5.0792 1.383-4.6899 1.929 0.6167 7.597 12.738 7.453 15.937-0.093994 2.0717-0.73498 2.252-4.898 1.3769-2.634-0.5538-6.868-0.6095-9.41-0.1238-2.541 0.4858-4.917 0.9255-5.279 0.9772-0.362 0.051697-0.888-0.8253-1.169-1.9488zm1.827-9.4011c0.028992-0.6254 0.71399-1.7599 1.522-2.5212 1.129-1.062 1.581-0.9441 1.943 0.5067 0.26001 1.04 0.18399 2.2193-0.16901 2.6208-0.97998 1.1147-3.354 0.67799-3.296-0.6063zm1.42-26.756c0.31799-0.3624 3.752-1.1679 7.63-1.7899 7.88-1.2639 9.44-3.7862 3.78-6.1107-6.367-2.6148-14.358 0.8954-14.607 6.4168-0.084991 1.8721 2.004 2.8413 3.197 1.4838zm3.783 296.87c-1.726-2.554-4.392-5.06-5.924-5.57-1.831-0.61002-3.476-2.638-4.797-5.916-3.431-8.511-16.464-31.87-22.576-40.462-3.204-4.504-5.807-8.566-5.787-9.028 0.021027-0.46201 2.001-2.383 4.399-4.267 12.61-9.908 12.952-9.906 14.236 0.098999 1.447 11.271 9.839 30.602 23.709 54.616 6.815 11.801 7.787 14.734 3.863 11.669-2.725-2.129-3.006-2.017-2.53 1.009 0.60901 3.873-1.044 3.099-4.593-2.15zm-119.42-37.278c-4.17-8.784-5.585-14.526-5.275-21.396 0.218-4.813 0.59801-5.847 2.111-5.736 2.331 0.17099 12.435 4.738 13.411 6.061 0.69 0.93698-3.179 30.819-4.519 34.893-0.408 1.243-0.989 0.27502-1.67-2.784-0.574-2.579-2.4-7.546-4.058-11.038zm-16.64-4.319c-0.85001-0.69199-2.235-5.384-3.077-10.426-0.84299-5.043-2.334-12.682-3.314-16.976-0.981-4.294-1.733-8.908-1.672-10.253 0.101-2.246 0.489-2.13 4.771 1.423 7.183 5.961 7.797 7.09 8.215 15.1 0.237 4.532 1.763 11.454 3.946 17.9 3.324 9.814 3.814 14.074 1.184 10.305-2.214-3.174-3.741-2.047-3.31 2.443 0.398 4.139 0.332 4.084-2.395-2.001-1.542-3.441-3.499-6.823-4.348-7.515zm-69.222-88.701c-1.8109-2.28-3.4906-5.404-3.7325-6.944-0.4066-2.586-0.2396-2.524 2.1909 0.813 2.6788 3.678 6.3989 4.965 7.6679 2.652 1.4439-2.631-0.3007-9.085-3.1053-11.489-3.64-3.12-4.5523-6.278-1.5858-5.489 3.5204 0.936 7.994 10.106 7.734 15.853-0.233 5.166-2.199 9.019-4.5144 8.848-0.7491-0.054993-2.8439-1.965-4.6548-4.244zm0.1311-12.419c0.3598-0.409 1.1394 0.65799 1.7325 2.371 1.031 2.979 1.0023 3.012-0.6539 0.745-0.9529-1.305-1.4383-2.707-1.0786-3.116zm-14.781-12.149c-2.4207-0.26-2.4858-0.39101-0.6234-1.255 3.5017-1.623 6.6621-1.01 6.5589 1.272-0.061699 1.367-0.6336 1.771-1.6633 1.178-0.863-0.49799-2.7855-1.035-4.2722-1.195zm18.211-1.322c0.032196-0.71199 0.4988-0.901 1.0369-0.42s0.952 1.458 0.9198 2.171c-0.032196 0.713-0.4988 0.90199-1.0369 0.42-0.538-0.481-0.952-1.458-0.9198-2.171zm-4.7031-7.216c1.3539-3.187 3.0961-5.749 3.8718-5.691 2.0606 0.151 1.5608 3.708-0.7099 5.052-1.0716 0.634-2.64 2.98-3.4853 5.213-0.8455 2.233-1.6724 3.421-1.8377 2.641-0.1653-0.78101 0.8072-4.027 2.1611-7.215zm231.55 14.819c-2.583-0.98601-5.442-3.017-6.354-4.512-2.384-3.908-1.809-9.763 1.308-13.309 2.726-3.102 4.728-2.872 7.796 0.89299 1.329 1.631 2.147 1.711 5.067 0.5 1.915-0.79399 5.14-1.144 7.166-0.77699 3.302 0.597 3.731 1.127 4.131 5.101 0.66498 6.612-0.664 10.375-4.383 12.409-3.998 2.188-8.441 2.095-14.731-0.30499zm22.487-15.649c-0.95099-2.636-1.463-5.095-1.138-5.464 0.32501-0.37 2.951-0.319 5.837 0.112l5.247 0.784-3.409 5.324c-1.875 2.928-3.724 5.034-4.109 4.68-0.38501-0.35399-1.478-2.8-2.428-5.436zm-38.334-4.546c-1.553-5.979-2.511-16.11-1.517-16.037 1.125 0.083008 20.698 9.428 22.892 10.929 1.546 1.059 1.322 1.144-1.036 0.393-1.656-0.52701-4.026-1.367-5.268-1.866-3.749-1.508-8.215 1.359-10.443 6.704-1.118 2.682-2.326 4.869-2.685 4.862-0.35901-0.007996-1.233-2.251-1.943-4.985zm68.095-71.708c-2.182-2.1824-3.371-27.853-1.282-27.699 0.53101 0.039101 2.245 2.7657 3.808 6.0593 1.564 3.2935 4.808 8.0189 7.209 10.501 2.401 2.482 4.327 4.8495 4.278 5.2609-0.107 0.91331-10.544 6.9579-11.965 6.9296-0.55899-0.011101-1.481-0.4842-2.048-1.0512zm26.871-7.5369c-4.093-2.3064-7.158-5.4887-11.793-12.243-8.568-12.483-18.303-33.692-20.68-45.053-0.55899-2.6725-1.429-4.8895-1.933-4.9266-2.206-0.1623-2.512 7.1537-0.70102 16.743 1.037 5.4971 2.023 11.76 2.19 13.917l0.30301 3.9223-3.233-4.3467c-1.778-2.3906-6.217-6.7198-9.865-9.6203-4.425-3.5182-6.597-6.0568-6.526-7.6261 0.14798-3.2882 9.279-12.224 16.622-16.267 7.022-3.8665 15.892-4.5689 19.779-1.5662 4.08 3.153 9.204 14.477 12.59 27.827 4.022 15.854 5.82 20.481 10.963 28.218 5.022 7.5539 6.651 13.047 4.068 13.716-3.678 0.95171-6.436 0.3214-11.784-2.6929zm-37.739-2.9931c-0.48801-0.9296-1.337-4.246-1.887-7.3696-0.54901-3.1237-2.488-8.0452-4.308-10.937-3.256-5.1721-3.272-5.2695-1-6.0096 1.789-0.5829 2.778 0.096298 4.396 3.017 1.846 3.3354 5.678 18.485 5.525 21.852-0.079987 1.7832-1.668 1.4612-2.726-0.553zm-13.958-2.0114c-0.315-0.7432 0.16-1.6497 1.055-2.0143 0.918-0.3743 2.015-2.9173 2.517-5.8408l0.89102-5.1779 1.635 4.5307c2.208 6.1168 2.065 7.0784-1.257 8.4785-3.799 1.601-4.172 1.6028-4.841 0.023804zm-2.538-14.827c0.31799-0.8568 0.482 0.1901 0.36398 2.3265-0.11697 2.1364-0.37698 2.8373-0.577 1.5578-0.19998-1.2796-0.104-3.0276 0.21301-3.8843z" fill="#191919" opacity=".8"/> </svg>